<?xml version="1.0" encoding="UTF-8"?>
<svg xmlns="http://www.w3.org/2000/svg" version="1.1" viewBox="0 0 4610.1 1272.9">
  <defs>
    <style>
      .cls-1 {
        fill: #ff9f1a;
      }

      .cls-2 {
        fill: #00d4ff;
      }
    </style>
  </defs>
  <!-- Generator: Adobe Illustrator 28.7.10, SVG Export Plug-In . SVG Version: 1.2.0 Build 236)  -->
  <g>
    <g id="Layer_1">
      <path class="cls-2" d="M166.8,1003.3l46-86.9c25.7,15.4,48.1,26,67.3,31.5,19.2,5.6,39.4,8.4,60.6,8.4s47.8-5.4,61.5-16.2c13.7-10.8,20.5-25.8,20.5-45.1s-5.5-31.6-16.4-41.5c-10.9-9.9-30.8-18.2-59.5-25.1-56.5-13.3-97.6-31.9-123.3-55.8-25.7-23.9-38.5-57.1-38.5-99.6s16.6-79.5,49.7-109.6c33.1-30,79.6-45.1,139.5-45.1s49.5,2.9,73.6,8.6c24.1,5.7,47.2,14.1,69.3,25.3l-42.4,87.6c-19.5-10.9-37.9-18.8-55.4-23.7-17.5-4.9-33.8-7.3-49-7.3-23.5,0-41.9,4.7-55,14.1-13.2,9.4-19.8,22.9-19.8,40.4s6,28.1,18,36.7c12,8.6,33.5,16.6,64.7,24.2,54.9,12.8,94.5,31.7,119,56.5,24.5,24.8,36.7,59.7,36.7,104.6s-16.9,86.9-50.6,116.7c-33.7,29.8-82.5,44.7-146.4,44.7s-58.3-3.8-88.5-11.4c-30.3-7.6-57.4-18.3-81.4-32.1Z"/>
      <path class="cls-2" d="M734.7,1037.8h-111.2v-510.9h111.2v510.9Z"/>
      <path class="cls-1" d="M1673.2,869v168.9h-111.2v-510.9h177.4c63.9,0,111.8,13.8,143.8,41.5,31.9,27.7,47.9,69.3,47.9,124.9s-18.3,94.9-55,127.2c-36.7,32.3-85.7,48.5-147,48.5h-55.9ZM1673.2,613.1v170.7h46.3c31.4,0,54.9-7.2,70.7-21.6,15.8-14.4,23.7-35.9,23.7-64.7s-7.8-49.4-23.3-63.4c-15.6-14-39.1-21-70.7-21h-46.7Z"/>
      <path class="cls-1" d="M2125.7,1037.8h-111.2v-510.9h111.2v510.9Z"/>
      <path class="cls-1" d="M2551.8,1037.8h-301.4v-510.9h111.2v420.4h190.3v90.5Z"/>
      <path class="cls-1" d="M2818.3,1046.7c-72.9,0-132.4-23.8-178.3-71.4-46-47.6-68.9-109.7-68.9-186.2s23.3-146.1,70-196c46.7-49.9,108.6-74.8,185.8-74.8s131.5,23.9,176.4,71.6c44.9,47.7,67.3,110.7,67.3,188.8s-23.3,145.3-69.8,194.4c-46.6,49.1-107.4,73.6-182.4,73.6ZM2820.4,950.2c41.1,0,73.5-14.5,97.3-43.5,23.7-29,35.6-69.5,35.6-121.5s-11.6-95.8-34.7-125.8c-23.2-29.9-54.9-44.9-95.3-44.9s-73.9,15.4-98.3,46.1c-24.5,30.8-36.7,71.6-36.7,122.4s12.2,92.3,36.5,122.2c24.3,29.9,56.2,44.9,95.7,44.9Z"/>
      <path class="cls-1" d="M3485.3,617.8h-146.1v420.1h-111.5v-420.1h-145.4v-90.9h403v90.9Z"/>
      <path class="cls-2" d="M3600.7,1046.7c-18.8,0-34.2-5.6-46.3-16.9-12.1-11.3-18.2-25.6-18.2-42.9s6.1-31.9,18.3-43.1c12.2-11.2,27.6-16.7,46.1-16.7s34.2,5.6,46.3,16.7c12.1,11.2,18.2,25.5,18.2,43.1s-6,31.7-18,42.9c-12,11.3-27.5,16.9-46.5,16.9Z"/>
      <path class="cls-2" d="M3709.4,1037.8l186.3-510.9h131.8l182.8,510.9h-121.9l-35.6-108.7h-187.8l-35.3,108.7h-120.4ZM3889.7,841.9h136.8l-57.7-180.6c-2.4-6.6-4.2-12.5-5.5-17.6-1.3-5.1-2.4-11.6-3.4-19.4h-2.9c-1.2,6.9-2.4,13.1-3.7,18.5-1.3,5.5-2.9,11.2-4.8,17.1l-58.8,182.1Z"/>
      <path class="cls-2" d="M4393.1,1037.8h-111.2v-510.9h111.2v510.9Z"/>
      <path class="cls-1" d="M1409,191.8c6.9-25.9,10.5-37.6,10-64.9-.4-17.1-31.7-29.7-44.3-18.3-20.2,18.4-25.9,28.4-39.9,51.2l-168.9-60.1c-9.6-3.4-20.2,1.2-24.3,10.6l-12.3,28.4c-3.9,9-.4,19.4,8,24.4l161.7,84.2c-2.1,9.4-5.2,28.5-5.2,28.5,0,0-20.7,88.4-22.6,94.3l-49.2-11.7c-9.1-2.2-18.5,2.6-22.2,11.2l-2.6,5.9c-3.9,9-.5,19.3,7.9,24.4l46.4,27.8c-2.9,8.1-6.1,16.4-9.7,25.3-5.6,13,12.2,20.7,17.8,7.7,4.2-8.8,8-16.7,11.8-24.3l52.1,14.6c9.3,2.7,19.1-2,23-11l2.6-5.9c3.7-8.6.7-18.7-7.1-23.9l-42.3-27.7c3-5.6,53.1-81.2,53.1-81.2,0,0,11.8-15.3,17.2-23.3l172.3,59.9c9.3,2.8,19.3-2,23.1-10.9l12.3-28.4c4-9.3.2-20.3-9-24.9l-159.7-81.7Z"/>
      <path class="cls-2" d="M1259.9,631c-.3.9,2.6-4.7-1.1,2.6s-1.9,30.1-2.5,44.4c-.8,18.3-1.2,35.6-1.2,52v307.8h110.1v-510.9h-70.1"/>
      <path class="cls-2" d="M1057.2,833.3l-108-306.4h-162.1v510.9h100.5v-286.8c0-19.2-.3-39.7-.9-61.5-.6-21.7-1.8-44.6-3.7-68.6h3.2c3.6,18.5,6.7,33.6,9.4,45.2,2.7,11.6,4.9,19.8,6.6,24.6l107.2,297.6"/>
      <path class="cls-1" d="M1250.3,457.9c-4-1.6-8.8,1.2-10.5,6.4l-217.2,649.5c-1.7,5.2,0,10.7,4,12.4,4,1.6,8.8-1.2,10.5-6.4l217.2-649.5c1.7-5.2,0-10.7-4-12.3Z"/>
      <path class="cls-1" d="M1029.9,1024.2l176.9-534.1c1.1-3.3-1.1-7.4-5.1-9-4-1.6-8.3-.3-9.4,3l-176.9,534.1c-1.1,3.3,1.1,7.4,5.1,9,4,1.6,8.3.3,9.3-3.1Z"/>
      <path class="cls-1" d="M1273.9,509.3c-4-1.7-8.2-.3-9.3,3l-176.9,534.1c-1.1,3.3,1.1,7.4,5.1,9,4,1.7,8.3.3,9.4-3.1l176.9-534.1c1.1-3.3-1.2-7.4-5.1-9Z"/>
    </g>
  </g>
</svg>